<svg xmlns="http://www.w3.org/2000/svg" version="1.1" xmlns:xlink="http://www.w3.org/1999/xlink" width="1000" height="1000"><style>
    #light-icon {
      display: inline;
    }
    #dark-icon {
      display: none;
    }

    @media (prefers-color-scheme: dark) {
      #light-icon {
        display: none;
      }
      #dark-icon {
        display: inline;
      }
    }
  </style><g id="light-icon"><svg xmlns="http://www.w3.org/2000/svg" version="1.1" xmlns:xlink="http://www.w3.org/1999/xlink" width="1000" height="1000"><g><g transform="matrix(2,0,0,2,0,0)"><svg xmlns="http://www.w3.org/2000/svg" version="1.1" xmlns:xlink="http://www.w3.org/1999/xlink" width="500" height="500"><svg xmlns="http://www.w3.org/2000/svg" xmlns:xlink="http://www.w3.org/1999/xlink" width="500" zoomAndPan="magnify" viewBox="0 0 375 374.999991" height="500" preserveAspectRatio="xMidYMid meet" version="1.2"><defs></defs><g id="60fb25c9dc"><g style="fill:#000000;fill-opacity:1;"><g transform="translate(20.728877, 296.249981)"><path style="stroke:none" d="M 152.703125 -205.71875 L 198.1875 -205.71875 L 198.1875 0 L 156.171875 0 L 64.90625 -127.78125 L 64.90625 0 L 19.40625 0 L 19.40625 -205.71875 L 61.421875 -205.71875 L 152.703125 -77.9375 Z M 152.703125 -205.71875 "></path></g></g><g style="fill:#000000;fill-opacity:1;"><g transform="translate(157.15971, 296.249981)"><path style="stroke:none" d="M 152.703125 -205.71875 L 198.1875 -205.71875 L 198.1875 0 L 156.171875 0 L 64.90625 -127.78125 L 64.90625 0 L 19.40625 0 L 19.40625 -205.71875 L 61.421875 -205.71875 L 152.703125 -77.9375 Z M 152.703125 -205.71875 "></path></g></g></g></svg></svg></g></g></svg></g><g id="dark-icon"><svg xmlns="http://www.w3.org/2000/svg" version="1.1" xmlns:xlink="http://www.w3.org/1999/xlink" width="1000" height="1000"><g><g transform="matrix(2,0,0,2,0,0)"><svg xmlns="http://www.w3.org/2000/svg" version="1.1" xmlns:xlink="http://www.w3.org/1999/xlink" width="500" height="500"><svg xmlns="http://www.w3.org/2000/svg" xmlns:xlink="http://www.w3.org/1999/xlink" width="500" zoomAndPan="magnify" viewBox="0 0 375 374.999991" height="500" preserveAspectRatio="xMidYMid meet" version="1.2"><defs></defs><g id="70338b0081"><g style="fill:#f8f8f8;fill-opacity:1;"><g transform="translate(11.202803, 296.249981)"><path style="stroke:none" d="M 152.703125 -205.71875 L 198.1875 -205.71875 L 198.1875 0 L 156.171875 0 L 64.90625 -127.78125 L 64.90625 0 L 19.40625 0 L 19.40625 -205.71875 L 61.421875 -205.71875 L 152.703125 -77.9375 Z M 152.703125 -205.71875 "></path></g></g><g style="fill:#f8f8f8;fill-opacity:1;"><g transform="translate(147.633628, 296.249981)"><path style="stroke:none" d="M 152.703125 -205.71875 L 198.1875 -205.71875 L 198.1875 0 L 156.171875 0 L 64.90625 -127.78125 L 64.90625 0 L 19.40625 0 L 19.40625 -205.71875 L 61.421875 -205.71875 L 152.703125 -77.9375 Z M 152.703125 -205.71875 "></path></g></g></g></svg></svg></g></g></svg></g></svg>